<?xml version="1.0"?>
<svg xmlns="http://www.w3.org/2000/svg" width="2525" height="110" viewBox="0 0 2525 110">
<rect x="10" y="109" width="20" height="1" fill="red" stroke="black" strok-width="2"/>
<rect x="35" y="108" width="20" height="2" fill="red" stroke="black" strok-width="2"/>
<rect x="60" y="107" width="20" height="3" fill="red" stroke="black" strok-width="2"/>
<rect x="85" y="106" width="20" height="4" fill="red" stroke="black" strok-width="2"/>
<rect x="110" y="105" width="20" height="5" fill="red" stroke="black" strok-width="2"/>
<rect x="135" y="104" width="20" height="6" fill="red" stroke="black" strok-width="2"/>
<rect x="160" y="103" width="20" height="7" fill="red" stroke="black" strok-width="2"/>
<rect x="185" y="102" width="20" height="8" fill="red" stroke="black" strok-width="2"/>
<rect x="210" y="101" width="20" height="9" fill="red" stroke="black" strok-width="2"/>
<rect x="235" y="100" width="20" height="10" fill="red" stroke="black" strok-width="2"/>
<rect x="260" y="99" width="20" height="11" fill="red" stroke="black" strok-width="2"/>
<rect x="285" y="98" width="20" height="12" fill="red" stroke="black" strok-width="2"/>
<rect x="310" y="97" width="20" height="13" fill="red" stroke="black" strok-width="2"/>
<rect x="335" y="96" width="20" height="14" fill="red" stroke="black" strok-width="2"/>
<rect x="360" y="95" width="20" height="15" fill="red" stroke="black" strok-width="2"/>
<rect x="385" y="94" width="20" height="16" fill="red" stroke="black" strok-width="2"/>
<rect x="410" y="93" width="20" height="17" fill="red" stroke="black" strok-width="2"/>
<rect x="435" y="92" width="20" height="18" fill="red" stroke="black" strok-width="2"/>
<rect x="460" y="91" width="20" height="19" fill="red" stroke="black" strok-width="2"/>
<rect x="485" y="90" width="20" height="20" fill="red" stroke="black" strok-width="2"/>
<rect x="510" y="89" width="20" height="21" fill="red" stroke="black" strok-width="2"/>
<rect x="535" y="88" width="20" height="22" fill="red" stroke="black" strok-width="2"/>
<rect x="560" y="87" width="20" height="23" fill="red" stroke="black" strok-width="2"/>
<rect x="585" y="86" width="20" height="24" fill="red" stroke="black" strok-width="2"/>
<rect x="610" y="85" width="20" height="25" fill="red" stroke="black" strok-width="2"/>
<rect x="635" y="84" width="20" height="26" fill="red" stroke="black" strok-width="2"/>
<rect x="660" y="83" width="20" height="27" fill="red" stroke="black" strok-width="2"/>
<rect x="685" y="82" width="20" height="28" fill="red" stroke="black" strok-width="2"/>
<rect x="710" y="81" width="20" height="29" fill="red" stroke="black" strok-width="2"/>
<rect x="735" y="80" width="20" height="30" fill="red" stroke="black" strok-width="2"/>
<rect x="760" y="79" width="20" height="31" fill="red" stroke="black" strok-width="2"/>
<rect x="785" y="78" width="20" height="32" fill="red" stroke="black" strok-width="2"/>
<rect x="810" y="77" width="20" height="33" fill="red" stroke="black" strok-width="2"/>
<rect x="835" y="76" width="20" height="34" fill="red" stroke="black" strok-width="2"/>
<rect x="860" y="75" width="20" height="35" fill="red" stroke="black" strok-width="2"/>
<rect x="885" y="74" width="20" height="36" fill="red" stroke="black" strok-width="2"/>
<rect x="910" y="73" width="20" height="37" fill="red" stroke="black" strok-width="2"/>
<rect x="935" y="72" width="20" height="38" fill="red" stroke="black" strok-width="2"/>
<rect x="960" y="71" width="20" height="39" fill="red" stroke="black" strok-width="2"/>
<rect x="985" y="70" width="20" height="40" fill="red" stroke="black" strok-width="2"/>
<rect x="1010" y="69" width="20" height="41" fill="red" stroke="black" strok-width="2"/>
<rect x="1035" y="68" width="20" height="42" fill="red" stroke="black" strok-width="2"/>
<rect x="1060" y="67" width="20" height="43" fill="red" stroke="black" strok-width="2"/>
<rect x="1085" y="66" width="20" height="44" fill="red" stroke="black" strok-width="2"/>
<rect x="1110" y="65" width="20" height="45" fill="red" stroke="black" strok-width="2"/>
<rect x="1135" y="64" width="20" height="46" fill="red" stroke="black" strok-width="2"/>
<rect x="1160" y="63" width="20" height="47" fill="red" stroke="black" strok-width="2"/>
<rect x="1185" y="62" width="20" height="48" fill="red" stroke="black" strok-width="2"/>
<rect x="1210" y="61" width="20" height="49" fill="red" stroke="black" strok-width="2"/>
<rect x="1235" y="60" width="20" height="50" fill="red" stroke="black" strok-width="2"/>
<rect x="1260" y="59" width="20" height="51" fill="red" stroke="black" strok-width="2"/>
<rect x="1285" y="58" width="20" height="52" fill="red" stroke="black" strok-width="2"/>
<rect x="1310" y="57" width="20" height="53" fill="red" stroke="black" strok-width="2"/>
<rect x="1335" y="56" width="20" height="54" fill="red" stroke="black" strok-width="2"/>
<rect x="1360" y="55" width="20" height="55" fill="red" stroke="black" strok-width="2"/>
<rect x="1385" y="54" width="20" height="56" fill="red" stroke="black" strok-width="2"/>
<rect x="1410" y="53" width="20" height="57" fill="red" stroke="black" strok-width="2"/>
<rect x="1435" y="52" width="20" height="58" fill="red" stroke="black" strok-width="2"/>
<rect x="1460" y="51" width="20" height="59" fill="red" stroke="black" strok-width="2"/>
<rect x="1485" y="50" width="20" height="60" fill="red" stroke="black" strok-width="2"/>
<rect x="1510" y="49" width="20" height="61" fill="red" stroke="black" strok-width="2"/>
<rect x="1535" y="48" width="20" height="62" fill="red" stroke="black" strok-width="2"/>
<rect x="1560" y="47" width="20" height="63" fill="red" stroke="black" strok-width="2"/>
<rect x="1585" y="46" width="20" height="64" fill="red" stroke="black" strok-width="2"/>
<rect x="1610" y="45" width="20" height="65" fill="red" stroke="black" strok-width="2"/>
<rect x="1635" y="44" width="20" height="66" fill="red" stroke="black" strok-width="2"/>
<rect x="1660" y="43" width="20" height="67" fill="red" stroke="black" strok-width="2"/>
<rect x="1685" y="42" width="20" height="68" fill="red" stroke="black" strok-width="2"/>
<rect x="1710" y="41" width="20" height="69" fill="red" stroke="black" strok-width="2"/>
<rect x="1735" y="40" width="20" height="70" fill="red" stroke="black" strok-width="2"/>
<rect x="1760" y="39" width="20" height="71" fill="red" stroke="black" strok-width="2"/>
<rect x="1785" y="38" width="20" height="72" fill="red" stroke="black" strok-width="2"/>
<rect x="1810" y="37" width="20" height="73" fill="red" stroke="black" strok-width="2"/>
<rect x="1835" y="36" width="20" height="74" fill="red" stroke="black" strok-width="2"/>
<rect x="1860" y="35" width="20" height="75" fill="red" stroke="black" strok-width="2"/>
<rect x="1885" y="34" width="20" height="76" fill="red" stroke="black" strok-width="2"/>
<rect x="1910" y="33" width="20" height="77" fill="red" stroke="black" strok-width="2"/>
<rect x="1935" y="32" width="20" height="78" fill="red" stroke="black" strok-width="2"/>
<rect x="1960" y="31" width="20" height="79" fill="red" stroke="black" strok-width="2"/>
<rect x="1985" y="30" width="20" height="80" fill="red" stroke="black" strok-width="2"/>
<rect x="2010" y="29" width="20" height="81" fill="red" stroke="black" strok-width="2"/>
<rect x="2035" y="28" width="20" height="82" fill="red" stroke="black" strok-width="2"/>
<rect x="2060" y="27" width="20" height="83" fill="red" stroke="black" strok-width="2"/>
<rect x="2085" y="26" width="20" height="84" fill="red" stroke="black" strok-width="2"/>
<rect x="2110" y="25" width="20" height="85" fill="red" stroke="black" strok-width="2"/>
<rect x="2135" y="24" width="20" height="86" fill="red" stroke="black" strok-width="2"/>
<rect x="2160" y="23" width="20" height="87" fill="red" stroke="black" strok-width="2"/>
<rect x="2185" y="22" width="20" height="88" fill="red" stroke="black" strok-width="2"/>
<rect x="2210" y="21" width="20" height="89" fill="red" stroke="black" strok-width="2"/>
<rect x="2235" y="20" width="20" height="90" fill="red" stroke="black" strok-width="2"/>
<rect x="2260" y="19" width="20" height="91" fill="red" stroke="black" strok-width="2"/>
<rect x="2285" y="18" width="20" height="92" fill="red" stroke="black" strok-width="2"/>
<rect x="2310" y="17" width="20" height="93" fill="red" stroke="black" strok-width="2"/>
<rect x="2335" y="16" width="20" height="94" fill="red" stroke="black" strok-width="2"/>
<rect x="2360" y="15" width="20" height="95" fill="red" stroke="black" strok-width="2"/>
<rect x="2385" y="14" width="20" height="96" fill="red" stroke="black" strok-width="2"/>
<rect x="2410" y="13" width="20" height="97" fill="red" stroke="black" strok-width="2"/>
<rect x="2435" y="12" width="20" height="98" fill="red" stroke="black" strok-width="2"/>
<rect x="2460" y="11" width="20" height="99" fill="red" stroke="black" strok-width="2"/>
<rect x="2485" y="10" width="20" height="100" fill="red" stroke="black" strok-width="2"/>
</svg>
